<svg data-docloom-hash="2525cff29983" xmlns="http://www.w3.org/2000/svg" width="2805" height="284" viewBox="0 0 2805 284" font-family="Segoe UI, Arial, sans-serif">
<rect width="100%" height="100%" fill="#F7F8FA"/>
<defs>
<marker id="ar_muted" markerWidth="9" markerHeight="7" refX="8.4" refY="3.5" orient="auto" markerUnits="userSpaceOnUse"><path d="M0,0 L9,3.5 L0,7 Z" fill="#5E6B7A"/></marker>
<marker id="ar_primary" markerWidth="9" markerHeight="7" refX="8.4" refY="3.5" orient="auto" markerUnits="userSpaceOnUse"><path d="M0,0 L9,3.5 L0,7 Z" fill="#1F3D63"/></marker>
<marker id="ar_accent" markerWidth="9" markerHeight="7" refX="8.4" refY="3.5" orient="auto" markerUnits="userSpaceOnUse"><path d="M0,0 L9,3.5 L0,7 Z" fill="#2F62A0"/></marker>
</defs>
<text x="36" y="34" font-size="21" font-weight="700" fill="#14161A">docloom architecture: sources to finished documents</text>
<rect x="36" y="44" width="48" height="3" rx="1.5" fill="#1F3D63"/>
<rect x="309.0" y="94.0" width="1313.0" height="94.0" rx="14" fill="#EBEEF3" fill-opacity="0.6" stroke="#1F3D63" stroke-opacity="0.5" stroke-width="1.3"/>
<rect x="1736.0" y="101.0" width="726.0" height="80.0" rx="14" fill="#EBEEF3" fill-opacity="0.6" stroke="#1F3D63" stroke-opacity="0.5" stroke-width="1.3"/>
<path d="M188.0,147.0 L316.0,147.0" fill="none" stroke="#5E6B7A" stroke-width="1.5" stroke-linecap="round" marker-end="url(#ar_muted)"/>
<path d="M468.0,147.0 L596.0,147.0" fill="none" stroke="#5E6B7A" stroke-width="1.5" stroke-linecap="round" marker-end="url(#ar_muted)"/>
<path d="M748.0,147.0 L876.0,147.0" fill="none" stroke="#5E6B7A" stroke-width="1.5" stroke-linecap="round" marker-end="url(#ar_muted)"/>
<path d="M1028.0,147.0 L1156.0,147.0" fill="none" stroke="#5E6B7A" stroke-width="1.5" stroke-linecap="round" marker-end="url(#ar_muted)"/>
<path d="M1308.0,147.0 L1436.0,147.0" fill="none" stroke="#5E6B7A" stroke-width="1.5" stroke-linecap="round" marker-end="url(#ar_muted)"/>
<path d="M1615.0,147.0 L1743.0,147.0" fill="none" stroke="#5E6B7A" stroke-width="1.5" stroke-linecap="round" marker-end="url(#ar_muted)"/>
<path d="M1895.0,147.0 L2023.0,147.0" fill="none" stroke="#5E6B7A" stroke-width="1.5" stroke-linecap="round" marker-end="url(#ar_muted)"/>
<path d="M2175.0,147.0 L2303.0,147.0" fill="none" stroke="#5E6B7A" stroke-width="1.5" stroke-linecap="round" marker-end="url(#ar_muted)"/>
<path d="M2455.0,147.0 L2583.0,147.0" fill="none" stroke="#1F3D63" stroke-width="2.3" stroke-linecap="round" marker-end="url(#ar_primary)"/>
<rect x="318.0" y="98.5" width="81.7" height="15" rx="3" fill="#F7F8FA" fill-opacity="0.95"/>
<text x="322.0" y="110.0" font-size="10.5" font-weight="700" letter-spacing="0.3" fill="#1F3D63">docloom studio</text>
<rect x="1745.0" y="105.5" width="84.3" height="15" rx="3" fill="#F7F8FA" fill-opacity="0.95"/>
<text x="1749.0" y="117.0" font-size="10.5" font-weight="700" letter-spacing="0.3" fill="#1F3D63">docloom engine</text>
<rect x="36.0" y="120.0" width="152.0" height="54.0" rx="9" fill="#F0EEF9" stroke="#A097D8" stroke-width="1.3"/>
<path d="M36.8,128.0 h4.0 v38.0 h-4.0 z" fill="#493C9F"/>
<text x="114.5" y="145.2" font-size="14.5" font-weight="650" text-anchor="middle" fill="#14161A">You</text>
<text x="114.5" y="158.2" font-size="10.5" text-anchor="middle" fill="#5E6B7A">notebook, chat, generate</text>
<path d="M316.0,122.0 L316.0,172.0 A76.0,9.0 0 0 0 468.0,172.0 L468.0,122.0 A76.0,9.0 0 0 0 316.0,122.0 Z" fill="#EBF3FC" stroke="#97B4D8" stroke-width="1.3"/>
<path d="M316.0,122.0 A76.0,9.0 0 0 0 468.0,122.0 A76.0,9.0 0 0 0 316.0,122.0" fill="none" stroke="#97B4D8" stroke-width="1.3"/>
<path d="M316.8,124.0 h4.0 v46.0 h-4.0 z" fill="#2F62A0"/>
<text x="394.5" y="149.2" font-size="14.5" font-weight="650" text-anchor="middle" fill="#14161A">Sources</text>
<text x="394.5" y="162.2" font-size="10.5" text-anchor="middle" fill="#5E6B7A">files, URLs, research</text>
<rect x="596.0" y="120.0" width="152.0" height="54.0" rx="9" fill="#EBF3FC" stroke="#97B4D8" stroke-width="1.3"/>
<path d="M596.8,128.0 h4.0 v38.0 h-4.0 z" fill="#1F3D63"/>
<text x="674.5" y="145.2" font-size="14.5" font-weight="650" text-anchor="middle" fill="#14161A">Ingest &amp; Embed</text>
<text x="674.5" y="158.2" font-size="10.5" text-anchor="middle" fill="#5E6B7A">chunk, vectorize</text>
<path d="M876.0,122.0 L876.0,172.0 A76.0,9.0 0 0 0 1028.0,172.0 L1028.0,122.0 A76.0,9.0 0 0 0 876.0,122.0 Z" fill="#EBF3FC" stroke="#97B4D8" stroke-width="1.3"/>
<path d="M876.0,122.0 A76.0,9.0 0 0 0 1028.0,122.0 A76.0,9.0 0 0 0 876.0,122.0" fill="none" stroke="#97B4D8" stroke-width="1.3"/>
<path d="M876.8,124.0 h4.0 v46.0 h-4.0 z" fill="#2F62A0"/>
<text x="954.5" y="149.2" font-size="14.5" font-weight="650" text-anchor="middle" fill="#14161A">Vector Store</text>
<text x="954.5" y="162.2" font-size="10.5" text-anchor="middle" fill="#5E6B7A">local .npy</text>
<rect x="1156.0" y="120.0" width="152.0" height="54.0" rx="9" fill="#EBF3FC" stroke="#97B4D8" stroke-width="1.3"/>
<path d="M1156.8,128.0 h4.0 v38.0 h-4.0 z" fill="#1F3D63"/>
<text x="1234.5" y="145.2" font-size="14.5" font-weight="650" text-anchor="middle" fill="#14161A">Retrieval</text>
<text x="1234.5" y="158.2" font-size="10.5" text-anchor="middle" fill="#5E6B7A">rank relevant chunks</text>
<rect x="1436.0" y="120.0" width="179.0" height="54.0" rx="9" fill="#EBF3FC" stroke="#97B4D8" stroke-width="1.3"/>
<path d="M1436.8,128.0 h4.0 v38.0 h-4.0 z" fill="#1F3D63"/>
<text x="1528.0" y="145.2" font-size="14.5" font-weight="650" text-anchor="middle" fill="#14161A">Grounded Generation</text>
<text x="1528.0" y="158.2" font-size="10.5" text-anchor="middle" fill="#5E6B7A">cited, via Gemini/Claude/Ollama</text>
<rect x="1743.0" y="120.0" width="152.0" height="54.0" rx="9" fill="#EBF3FC" stroke="#97B4D8" stroke-width="1.3"/>
<path d="M1743.8,128.0 h4.0 v38.0 h-4.0 z" fill="#1F3D63"/>
<text x="1821.5" y="145.2" font-size="14.5" font-weight="650" text-anchor="middle" fill="#14161A">Document IR</text>
<text x="1821.5" y="158.2" font-size="10.5" text-anchor="middle" fill="#5E6B7A">schema-validated</text>
<rect x="2023.0" y="120.0" width="152.0" height="54.0" rx="9" fill="#F8EFF1" stroke="#D49BAB" stroke-width="1.4"/>
<rect x="2027.5" y="124.5" width="143.0" height="45.0" rx="6" fill="none" stroke="#9A425A" stroke-width="0.9" stroke-dasharray="3 2.5" opacity="0.8"/>
<path d="M2023.8,129.0 h4.0 v36.0 h-4.0 z" fill="#9A425A"/>
<text x="2101.5" y="145.2" font-size="14.5" font-weight="650" text-anchor="middle" fill="#14161A">Linter</text>
<text x="2101.5" y="158.2" font-size="10.5" text-anchor="middle" fill="#5E6B7A">layout &amp; citations</text>
<rect x="2303.0" y="120.0" width="152.0" height="54.0" rx="9" fill="#EBF3FC" stroke="#97B4D8" stroke-width="1.3"/>
<path d="M2303.8,128.0 h4.0 v38.0 h-4.0 z" fill="#1F3D63"/>
<text x="2381.5" y="145.2" font-size="14.5" font-weight="650" text-anchor="middle" fill="#14161A">Renderers</text>
<text x="2381.5" y="158.2" font-size="10.5" text-anchor="middle" fill="#5E6B7A">deterministic</text>
<path d="M2583.0,122.0 L2583.0,172.0 A93.2,9.0 0 0 0 2769.4,172.0 L2769.4,122.0 A93.2,9.0 0 0 0 2583.0,122.0 Z" fill="#EBF3FC" stroke="#97B4D8" stroke-width="1.3"/>
<path d="M2583.0,122.0 A93.2,9.0 0 0 0 2769.4,122.0 A93.2,9.0 0 0 0 2583.0,122.0" fill="none" stroke="#97B4D8" stroke-width="1.3"/>
<path d="M2583.8,124.0 h4.0 v46.0 h-4.0 z" fill="#2F62A0"/>
<text x="2678.7" y="149.2" font-size="14.5" font-weight="650" text-anchor="middle" fill="#14161A">6 Formats</text>
<text x="2678.7" y="162.2" font-size="10.5" text-anchor="middle" fill="#5E6B7A">PPTX DOCX XLSX PDF HTML MD</text>
<rect x="211.4" y="140.0" width="30.0" height="14.0" rx="3" fill="#F7F8FA" fill-opacity="0.95" stroke="#5E6B7A" stroke-opacity="0.3" stroke-width="0.8"/>
<text x="226.4" y="149.0" font-size="10.5" text-anchor="middle" fill="#5E6B7A">add</text>
<rect x="766.1" y="140.0" width="40.7" height="14.0" rx="3" fill="#F7F8FA" fill-opacity="0.95" stroke="#5E6B7A" stroke-opacity="0.3" stroke-width="0.8"/>
<text x="786.4" y="149.0" font-size="10.5" text-anchor="middle" fill="#5E6B7A">embed</text>
<rect x="1321.2" y="140.0" width="50.4" height="14.0" rx="3" fill="#F7F8FA" fill-opacity="0.95" stroke="#5E6B7A" stroke-opacity="0.3" stroke-width="0.8"/>
<text x="1346.4" y="149.0" font-size="10.5" text-anchor="middle" fill="#5E6B7A">evidence</text>
<rect x="1635.8" y="140.0" width="35.3" height="14.0" rx="3" fill="#F7F8FA" fill-opacity="0.95" stroke="#5E6B7A" stroke-opacity="0.3" stroke-width="0.8"/>
<text x="1653.4" y="149.0" font-size="10.5" text-anchor="middle" fill="#5E6B7A">emits</text>
<rect x="2196.3" y="140.0" width="34.1" height="14.0" rx="3" fill="#F7F8FA" fill-opacity="0.95" stroke="#5E6B7A" stroke-opacity="0.3" stroke-width="0.8"/>
<text x="2213.4" y="149.0" font-size="10.5" text-anchor="middle" fill="#5E6B7A">clean</text>
<line x1="36" y1="230.0" x2="2769.4" y2="230.0" stroke="#5E6B7A" stroke-opacity="0.3"/>
<rect x="36.0" y="244.0" width="12" height="12" rx="3" fill="#F0EEF9" stroke="#493C9F"/>
<rect x="36.5" y="244.0" width="3" height="12" rx="1.5" fill="#493C9F"/>
<text x="53.0" y="254.0" font-size="10" fill="#5E6B7A">client</text>
<rect x="96.7" y="244.0" width="12" height="12" rx="3" fill="#EBF3FC" stroke="#2F62A0"/>
<rect x="97.2" y="244.0" width="3" height="12" rx="1.5" fill="#2F62A0"/>
<text x="113.7" y="254.0" font-size="10" fill="#5E6B7A">store</text>
<rect x="156.1" y="244.0" width="12" height="12" rx="3" fill="#EBF3FC" stroke="#1F3D63"/>
<rect x="156.6" y="244.0" width="3" height="12" rx="1.5" fill="#1F3D63"/>
<text x="173.1" y="254.0" font-size="10" fill="#5E6B7A">service</text>
<rect x="224.2" y="244.0" width="12" height="12" rx="3" fill="#F8EFF1" stroke="#9A425A"/>
<rect x="224.8" y="244.0" width="3" height="12" rx="1.5" fill="#9A425A"/>
<text x="241.2" y="254.0" font-size="10" fill="#5E6B7A">security</text>
<line x1="305.9" y1="250.0" x2="329.9" y2="250.0" stroke="#5E6B7A" stroke-width="1.5"/>
<text x="335.9" y="254.0" font-size="10" fill="#5E6B7A">flow</text>
<line x1="374.2" y1="250.0" x2="398.2" y2="250.0" stroke="#5E6B7A" stroke-width="1.5" stroke-dasharray="6 4"/>
<text x="404.2" y="254.0" font-size="10" fill="#5E6B7A">async / return</text>
<line x1="485.0" y1="250.0" x2="509.0" y2="250.0" stroke="#1F3D63" stroke-width="2.3"/>
<text x="515.0" y="254.0" font-size="10" fill="#5E6B7A">primary path</text>
<line x1="590.4" y1="250.0" x2="614.4" y2="250.0" stroke="#2F62A0" stroke-width="1.9" stroke-dasharray="9 3 2 3"/>
<text x="620.4" y="254.0" font-size="10" fill="#5E6B7A">secure</text>
</svg>