<svg data-docloom-hash="9bd9a0f4086a" xmlns="http://www.w3.org/2000/svg" width="1803" height="633" viewBox="0 0 1803 633" font-family="Segoe UI, Arial, sans-serif">
<rect width="100%" height="100%" fill="#F7F8FA"/>
<defs>
<marker id="ar_muted" markerWidth="9" markerHeight="7" refX="8.4" refY="3.5" orient="auto" markerUnits="userSpaceOnUse"><path d="M0,0 L9,3.5 L0,7 Z" fill="#5E6B7A"/></marker>
<marker id="ar_primary" markerWidth="9" markerHeight="7" refX="8.4" refY="3.5" orient="auto" markerUnits="userSpaceOnUse"><path d="M0,0 L9,3.5 L0,7 Z" fill="#1F3D63"/></marker>
<marker id="ar_accent" markerWidth="9" markerHeight="7" refX="8.4" refY="3.5" orient="auto" markerUnits="userSpaceOnUse"><path d="M0,0 L9,3.5 L0,7 Z" fill="#2F62A0"/></marker>
</defs>
<text x="36" y="34" font-size="21" font-weight="700" fill="#14161A">docloom architecture (full)</text>
<rect x="36" y="44" width="48" height="3" rx="1.5" fill="#1F3D63"/>
<rect x="216.0" y="94.0" width="760.5" height="351.0" rx="14" fill="#EBEEF3" fill-opacity="0.6" stroke="#1F3D63" stroke-opacity="0.5" stroke-width="1.3"/>
<rect x="992.5" y="320.0" width="560.0" height="165.0" rx="14" fill="#EBEEF3" fill-opacity="0.6" stroke="#1F3D63" stroke-opacity="0.5" stroke-width="1.3"/>
<path d="M188.4,293.5 L188.4,293.5 Q188.4,293.5 188.9,293.5 L215.8,293.5 Q216.3,293.5 216.3,293.5 L216.3,293.5 Q216.3,293.5 216.8,293.5 L227.8,293.5" fill="none" stroke="#5E6B7A" stroke-width="1.5" stroke-linecap="round" marker-end="url(#ar_muted)"/>
<path d="M308.0,340.4 L308.0,344.5 Q308.0,347.2 308.0,349.8 L308.0,352.0 Q308.0,352.5 308.0,352.5 L308.0,352.5 Q308.0,352.5 308.0,352.5 L308.0,352.5 Q308.0,352.5 308.5,352.5 L416.3,352.5 Q416.8,352.5 416.8,352.5 L416.8,352.5 Q416.8,352.5 417.3,352.5 L428.3,352.5" fill="none" stroke="#5E6B7A" stroke-width="1.5" stroke-linecap="round" marker-end="url(#ar_muted)"/>
<path d="M581.0,390.0 L581.0,390.0 Q581.0,390.0 581.5,390.0 L608.0,390.0 Q608.5,390.0 608.5,390.0 L608.5,390.0 Q608.5,390.0 609.0,390.0 L620.1,390.0" fill="none" stroke="#5E6B7A" stroke-width="1.5" stroke-linecap="round" marker-end="url(#ar_muted)"/>
<path d="M773.0,406.0 L773.0,406.0 Q773.0,406.0 773.5,406.0 L800.0,406.0 Q800.5,406.0 800.5,406.0 L800.5,406.0 Q800.5,406.0 801.0,406.0 L812.1,406.0" fill="none" stroke="#5E6B7A" stroke-width="1.5" stroke-linecap="round" marker-end="url(#ar_muted)"/>
<path d="M188.1,273.5 L188.1,273.5 Q188.1,273.5 188.6,273.5 L416.3,273.5 Q416.8,273.5 416.8,273.5 L416.8,273.5 Q416.8,273.5 417.3,273.5 L428.3,273.5" fill="none" stroke="#5E6B7A" stroke-width="1.5" stroke-linecap="round" marker-end="url(#ar_muted)"/>
<path d="M580.9,280.5 L613.7,280.5 Q624.7,280.5 635.7,280.5 L670.5,280.5 Q671.0,280.5 671.0,280.5 L671.0,280.5 Q671.0,280.5 671.0,280.5 L671.0,280.5 Q671.0,280.5 671.0,281.0 L671.0,287.7 Q671.0,288.2 671.0,288.2 L671.0,288.2 Q671.0,288.2 671.0,288.7 L671.0,299.7" fill="none" stroke="#5E6B7A" stroke-width="1.5" stroke-linecap="round" marker-end="url(#ar_muted)"/>
<path d="M772.9,347.0 L805.7,347.0 Q816.7,347.0 827.7,347.0 L862.5,347.0 Q863.0,347.0 863.0,347.0 L863.0,347.0 Q863.0,347.0 863.0,347.0 L863.0,347.0 Q863.0,347.0 863.0,347.5 L863.0,352.6 Q863.0,353.1 863.0,353.1 L863.0,353.1 Q863.0,353.1 863.0,353.6 L863.0,364.6" fill="none" stroke="#5E6B7A" stroke-width="1.5" stroke-dasharray="6 4" stroke-linecap="round" marker-end="url(#ar_muted)"/>
<path d="M773.0,313.3 L773.0,313.3 Q773.0,313.3 773.5,313.3 L800.0,313.3 Q800.5,313.3 800.5,313.3 L800.5,313.3 Q800.5,313.3 801.0,313.3 L812.1,313.3" fill="none" stroke="#5E6B7A" stroke-width="1.5" stroke-linecap="round" marker-end="url(#ar_muted)"/>
<path d="M722.0,275.4 L722.0,281.2 Q722.0,286.1 722.0,291.1 L722.0,295.5 Q722.0,296.0 722.0,296.0 L722.0,296.0 Q722.0,296.0 722.0,296.0 L722.0,296.0 Q722.0,296.0 722.5,296.0 L800.1,296.0 Q800.6,296.0 800.6,296.0 L800.6,296.0 Q800.6,296.0 801.1,296.0 L812.1,296.0" fill="none" stroke="#5E6B7A" stroke-width="1.5" stroke-dasharray="6 4" stroke-linecap="round" marker-end="url(#ar_muted)"/>
<path d="M772.9,162.0 L815.6,162.0 Q826.6,162.0 837.6,162.0 L888.5,162.0 Q889.0,162.0 889.0,162.0 L889.0,162.0 Q889.0,162.0 889.0,162.0 L889.0,162.0 Q889.0,162.0 889.0,162.5 L889.0,273.6 Q889.0,274.1 889.0,274.1 L889.0,274.1 Q889.0,274.1 889.0,274.6 L889.0,285.7" fill="none" stroke="#5E6B7A" stroke-width="1.5" stroke-linecap="round" marker-end="url(#ar_muted)"/>
<path d="M773.0,465.5 L780.6,465.5 Q784.7,465.5 788.9,465.5 L792.5,465.5 Q793.0,465.5 793.0,465.5 L793.0,465.5 Q793.0,465.5 793.0,465.5 L793.0,465.5 Q793.0,465.5 793.0,465.0 L793.0,327.2 Q793.0,326.7 793.0,326.7 L793.0,326.7 Q793.0,326.7 793.0,326.7 L793.0,326.7 Q793.0,326.7 793.5,326.7 L800.3,326.7 Q800.8,326.7 800.8,326.7 L800.8,326.7 Q800.8,326.7 801.3,326.7 L812.3,326.7" fill="none" stroke="#5E6B7A" stroke-width="1.5" stroke-dasharray="6 4" stroke-linecap="round" marker-end="url(#ar_muted)"/>
<path d="M914.0,340.3 L914.0,345.9 Q914.0,350.4 914.0,355.0 L914.0,359.0 Q914.0,359.5 914.0,359.5 L914.0,359.5 Q914.0,359.5 914.0,359.5 L914.0,359.5 Q914.0,359.5 914.5,359.5 L992.1,359.5 Q992.6,359.5 992.6,359.5 L992.6,359.5 Q992.6,359.5 993.1,359.5 L1004.1,359.5" fill="none" stroke="#5E6B7A" stroke-width="1.5" stroke-linecap="round" marker-end="url(#ar_muted)"/>
<path d="M1081.0,408.4 L1081.0,417.1 Q1081.0,425.9 1081.0,434.7 L1081.0,445.0 Q1081.0,445.5 1081.0,445.5 L1081.0,445.5 Q1081.0,445.5 1081.0,445.5 L1081.0,445.5 Q1081.0,445.5 1081.5,445.5 L1184.3,445.5 Q1184.8,445.5 1184.8,445.5 L1184.8,445.5 Q1184.8,445.5 1185.3,445.5 L1196.3,445.5" fill="none" stroke="#5E6B7A" stroke-width="1.5" stroke-linecap="round" marker-end="url(#ar_muted)"/>
<path d="M1157.0,381.0 L1157.0,381.0 Q1157.0,381.0 1157.5,381.0 L1184.0,381.0 Q1184.5,381.0 1184.5,381.0 L1184.5,381.0 Q1184.5,381.0 1185.0,381.0 L1196.1,381.0" fill="none" stroke="#5E6B7A" stroke-width="1.5" stroke-linecap="round" marker-end="url(#ar_muted)"/>
<path d="M1349.0,453.0 L1349.0,453.0 Q1349.0,453.0 1349.5,453.0 L1376.0,453.0 Q1376.5,453.0 1376.5,453.0 L1376.5,453.0 Q1376.5,453.0 1377.0,453.0 L1388.1,453.0" fill="none" stroke="#5E6B7A" stroke-width="1.5" stroke-linecap="round" marker-end="url(#ar_muted)"/>
<path d="M1273.0,408.5 L1273.0,413.8 Q1273.0,417.8 1273.0,421.9 L1273.0,425.5 Q1273.0,426.0 1273.0,426.0 L1273.0,426.0 Q1273.0,426.0 1273.0,426.0 L1273.0,426.0 Q1273.0,426.0 1273.5,426.0 L1376.3,426.0 Q1376.8,426.0 1376.8,426.0 L1376.8,426.0 Q1376.8,426.0 1377.3,426.0 L1388.3,426.0" fill="none" stroke="#5E6B7A" stroke-width="1.5" stroke-linecap="round" marker-end="url(#ar_muted)"/>
<path d="M1465.0,473.0 L1465.0,486.6 Q1465.0,497.6 1465.0,508.6 L1465.0,529.5 Q1465.0,530.0 1465.0,530.0 L1465.0,530.0 Q1465.0,530.0 1465.0,530.0 L1465.0,530.0 Q1465.0,530.0 1464.5,530.0 L308.5,530.0 Q308.0,530.0 308.0,530.0 L308.0,530.0 Q308.0,530.0 308.0,530.0 L308.0,530.0 Q308.0,530.0 308.0,529.5 L308.0,445.4 Q308.0,444.9 308.0,444.9 L308.0,444.9 Q308.0,444.9 308.0,444.4 L308.0,433.4" fill="none" stroke="#5E6B7A" stroke-width="1.5" stroke-linecap="round" marker-end="url(#ar_muted)"/>
<path d="M1541.0,446.0 L1541.0,446.0 Q1541.0,446.0 1541.5,446.0 L1568.1,446.0 Q1568.6,446.0 1568.6,446.0 L1568.6,446.0 Q1568.6,446.0 1569.1,446.0 L1580.1,446.0" fill="none" stroke="#1F3D63" stroke-width="2.3" stroke-linecap="round" marker-end="url(#ar_primary)"/>
<rect x="225.0" y="98.5" width="81.7" height="15" rx="3" fill="#F7F8FA" fill-opacity="0.95"/>
<text x="229.0" y="110.0" font-size="10.5" font-weight="700" letter-spacing="0.3" fill="#1F3D63">docloom studio</text>
<rect x="1001.5" y="324.5" width="84.3" height="15" rx="3" fill="#F7F8FA" fill-opacity="0.95"/>
<text x="1005.5" y="336.0" font-size="10.5" font-weight="700" letter-spacing="0.3" fill="#1F3D63">docloom engine</text>
<rect x="36.0" y="261.0" width="152.0" height="40.0" rx="9" fill="#F0EEF9" stroke="#A097D8" stroke-width="1.3"/>
<path d="M36.8,269.0 h4.0 v24.0 h-4.0 z" fill="#493C9F"/>
<text x="114.5" y="285.5" font-size="14.5" font-weight="650" text-anchor="middle" fill="#14161A">You</text>
<rect x="620.5" y="458.0" width="152.0" height="54.0" rx="27.0" fill="#EBEEF3" stroke="#5E6B7A" stroke-width="1.4" stroke-dasharray="6 3"/>
<text x="699.0" y="483.2" font-size="14.5" font-weight="650" text-anchor="middle" fill="#14161A">LLM Provider</text>
<text x="699.0" y="496.2" font-size="10.5" text-anchor="middle" fill="#14161A">Gemini/Claude/Ollama</text>
<rect x="228.0" y="286.0" width="160.6" height="54.0" rx="9" fill="#F8EFF1" stroke="#D49BAB" stroke-width="1.4"/>
<rect x="232.5" y="290.5" width="151.6" height="45.0" rx="6" fill="none" stroke="#9A425A" stroke-width="0.9" stroke-dasharray="3 2.5" opacity="0.8"/>
<path d="M228.8,295.0 h4.0 v36.0 h-4.0 z" fill="#9A425A"/>
<text x="310.8" y="302.8" font-size="14.5" font-weight="650" text-anchor="middle" fill="#14161A">Auth &amp;</text>
<text x="310.8" y="319.8" font-size="14.5" font-weight="650" text-anchor="middle" fill="#14161A">Workspaces</text>
<text x="310.8" y="332.8" font-size="10.5" text-anchor="middle" fill="#14161A">per-tenant</text>
<path d="M428.6,342.0 L428.6,392.0 A76.0,9.0 0 0 0 580.5,392.0 L580.5,342.0 A76.0,9.0 0 0 0 428.6,342.0 Z" fill="#EBF3FC" stroke="#97B4D8" stroke-width="1.3"/>
<path d="M428.6,342.0 A76.0,9.0 0 0 0 580.5,342.0 A76.0,9.0 0 0 0 428.6,342.0" fill="none" stroke="#97B4D8" stroke-width="1.3"/>
<path d="M429.4,344.0 h4.0 v46.0 h-4.0 z" fill="#2F62A0"/>
<text x="507.0" y="369.2" font-size="14.5" font-weight="650" text-anchor="middle" fill="#14161A">Sources</text>
<text x="507.0" y="382.2" font-size="10.5" text-anchor="middle" fill="#14161A">files, URLs</text>
<rect x="620.5" y="379.0" width="152.0" height="54.0" rx="9" fill="#EBF3FC" stroke="#97B4D8" stroke-width="1.3"/>
<path d="M621.3,387.0 h4.0 v38.0 h-4.0 z" fill="#1F3D63"/>
<text x="699.0" y="404.2" font-size="14.5" font-weight="650" text-anchor="middle" fill="#14161A">Ingest</text>
<text x="699.0" y="417.2" font-size="10.5" text-anchor="middle" fill="#14161A">chunk</text>
<path d="M812.5,374.0 L812.5,424.0 A76.0,9.0 0 0 0 964.5,424.0 L964.5,374.0 A76.0,9.0 0 0 0 812.5,374.0 Z" fill="#EBF3FC" stroke="#97B4D8" stroke-width="1.3"/>
<path d="M812.5,374.0 A76.0,9.0 0 0 0 964.5,374.0 A76.0,9.0 0 0 0 812.5,374.0" fill="none" stroke="#97B4D8" stroke-width="1.3"/>
<path d="M813.3,376.0 h4.0 v46.0 h-4.0 z" fill="#2F62A0"/>
<text x="891.0" y="401.2" font-size="14.5" font-weight="650" text-anchor="middle" fill="#14161A">Embeddings</text>
<text x="891.0" y="414.2" font-size="10.5" text-anchor="middle" fill="#14161A">local .npy</text>
<rect x="620.5" y="300.0" width="152.0" height="54.0" rx="9" fill="#EBF3FC" stroke="#97B4D8" stroke-width="1.3"/>
<path d="M621.3,308.0 h4.0 v38.0 h-4.0 z" fill="#1F3D63"/>
<text x="699.0" y="325.2" font-size="14.5" font-weight="650" text-anchor="middle" fill="#14161A">Retrieval</text>
<text x="699.0" y="338.2" font-size="10.5" text-anchor="middle" fill="#14161A">rank</text>
<rect x="428.6" y="238.0" width="152.0" height="54.0" rx="9" fill="#EBF3FC" stroke="#97B4D8" stroke-width="1.3"/>
<path d="M429.4,246.0 h4.0 v38.0 h-4.0 z" fill="#1F3D63"/>
<text x="507.0" y="263.2" font-size="14.5" font-weight="650" text-anchor="middle" fill="#14161A">Chat &amp; Research</text>
<text x="507.0" y="276.2" font-size="10.5" text-anchor="middle" fill="#14161A">grounded</text>
<rect x="626.5" y="215.0" width="152.0" height="54.0" rx="9" fill="#EEF9F0" stroke="#97D8A2" stroke-width="1.1" opacity="0.6"/>
<rect x="620.5" y="221.0" width="152.0" height="54.0" rx="9" fill="#EEF9F0" stroke="#97D8A2" stroke-width="1.3"/>
<path d="M621.3,229.0 h4.0 v38.0 h-4.0 z" fill="#3C9F4C"/>
<text x="699.0" y="246.2" font-size="14.5" font-weight="650" text-anchor="middle" fill="#14161A">Jobs &amp; SSE</text>
<text x="699.0" y="259.2" font-size="10.5" text-anchor="middle" fill="#14161A">async</text>
<rect x="812.5" y="286.0" width="152.0" height="54.0" rx="9" fill="#EBF3FC" stroke="#97B4D8" stroke-width="1.3"/>
<path d="M813.3,294.0 h4.0 v38.0 h-4.0 z" fill="#1F3D63"/>
<text x="891.0" y="311.2" font-size="14.5" font-weight="650" text-anchor="middle" fill="#14161A">Generation</text>
<text x="891.0" y="324.2" font-size="10.5" text-anchor="middle" fill="#14161A">cited</text>
<path d="M620.5,137.0 L620.5,187.0 A76.0,9.0 0 0 0 772.5,187.0 L772.5,137.0 A76.0,9.0 0 0 0 620.5,137.0 Z" fill="#EBF3FC" stroke="#97B4D8" stroke-width="1.3"/>
<path d="M620.5,137.0 A76.0,9.0 0 0 0 772.5,137.0 A76.0,9.0 0 0 0 620.5,137.0" fill="none" stroke="#97B4D8" stroke-width="1.3"/>
<path d="M621.3,139.0 h4.0 v46.0 h-4.0 z" fill="#2F62A0"/>
<text x="699.0" y="164.2" font-size="14.5" font-weight="650" text-anchor="middle" fill="#14161A">Assets &amp; Brand</text>
<text x="699.0" y="177.2" font-size="10.5" text-anchor="middle" fill="#14161A">logo, fonts</text>
<path d="M232.3,374.0 L232.3,424.0 A76.0,9.0 0 0 0 384.3,424.0 L384.3,374.0 A76.0,9.0 0 0 0 232.3,374.0 Z" fill="#EBF3FC" stroke="#97B4D8" stroke-width="1.3"/>
<path d="M232.3,374.0 A76.0,9.0 0 0 0 384.3,374.0 A76.0,9.0 0 0 0 232.3,374.0" fill="none" stroke="#97B4D8" stroke-width="1.3"/>
<path d="M233.1,376.0 h4.0 v46.0 h-4.0 z" fill="#2F62A0"/>
<text x="310.8" y="401.2" font-size="14.5" font-weight="650" text-anchor="middle" fill="#14161A">Artifacts</text>
<text x="310.8" y="414.2" font-size="10.5" text-anchor="middle" fill="#14161A">versioned</text>
<rect x="1004.5" y="354.0" width="152.0" height="54.0" rx="9" fill="#EBF3FC" stroke="#97B4D8" stroke-width="1.3"/>
<path d="M1005.3,362.0 h4.0 v38.0 h-4.0 z" fill="#1F3D63"/>
<text x="1083.0" y="379.2" font-size="14.5" font-weight="650" text-anchor="middle" fill="#14161A">Document IR</text>
<text x="1083.0" y="392.2" font-size="10.5" text-anchor="middle" fill="#14161A">validated</text>
<rect x="1196.5" y="433.0" width="152.0" height="40.0" rx="9" fill="#F8EFF1" stroke="#D49BAB" stroke-width="1.4"/>
<rect x="1201.0" y="437.5" width="143.0" height="31.0" rx="6" fill="none" stroke="#9A425A" stroke-width="0.9" stroke-dasharray="3 2.5" opacity="0.8"/>
<path d="M1197.3,442.0 h4.0 v22.0 h-4.0 z" fill="#9A425A"/>
<text x="1275.0" y="457.5" font-size="14.5" font-weight="650" text-anchor="middle" fill="#14161A">Linter</text>
<rect x="1196.5" y="354.0" width="152.0" height="54.0" rx="9" fill="#EBF3FC" stroke="#97B4D8" stroke-width="1.3"/>
<path d="M1197.3,362.0 h4.0 v38.0 h-4.0 z" fill="#1F3D63"/>
<text x="1275.0" y="379.2" font-size="14.5" font-weight="650" text-anchor="middle" fill="#14161A">Diagram Solver</text>
<text x="1275.0" y="392.2" font-size="10.5" text-anchor="middle" fill="#14161A">coordinate-free</text>
<rect x="1388.5" y="419.0" width="152.0" height="54.0" rx="9" fill="#EBF3FC" stroke="#97B4D8" stroke-width="1.3"/>
<path d="M1389.3,427.0 h4.0 v38.0 h-4.0 z" fill="#1F3D63"/>
<text x="1467.0" y="444.2" font-size="14.5" font-weight="650" text-anchor="middle" fill="#14161A">Renderers</text>
<text x="1467.0" y="457.2" font-size="10.5" text-anchor="middle" fill="#14161A">deterministic</text>
<path d="M1580.6,421.0 L1580.6,471.0 A93.2,9.0 0 0 0 1767.0,471.0 L1767.0,421.0 A93.2,9.0 0 0 0 1580.6,421.0 Z" fill="#EBF3FC" stroke="#97B4D8" stroke-width="1.3"/>
<path d="M1580.6,421.0 A93.2,9.0 0 0 0 1767.0,421.0 A93.2,9.0 0 0 0 1580.6,421.0" fill="none" stroke="#97B4D8" stroke-width="1.3"/>
<path d="M1581.4,423.0 h4.0 v46.0 h-4.0 z" fill="#2F62A0"/>
<text x="1676.3" y="442.0" font-size="14.5" font-weight="650" text-anchor="middle" fill="#14161A">6 Formats</text>
<text x="1676.3" y="455.0" font-size="10.5" text-anchor="middle" fill="#14161A">PPTX DOCX XLSX PDF HTML</text>
<text x="1676.3" y="467.5" font-size="10.5" text-anchor="middle" fill="#14161A">MD</text>
<rect x="189.1" y="286.5" width="31.7" height="14.0" rx="3" fill="#F7F8FA" fill-opacity="0.95" stroke="#5E6B7A" stroke-opacity="0.3" stroke-width="0.8"/>
<text x="205.0" y="295.5" font-size="10.5" text-anchor="middle" fill="#5E6B7A">login</text>
<rect x="762.8" y="409.0" width="40.7" height="14.0" rx="3" fill="#F7F8FA" fill-opacity="0.95" stroke="#5E6B7A" stroke-opacity="0.3" stroke-width="0.8"/>
<text x="783.1" y="418.0" font-size="10.5" text-anchor="middle" fill="#5E6B7A">embed</text>
<rect x="245.2" y="266.5" width="30.0" height="14.0" rx="3" fill="#F7F8FA" fill-opacity="0.95" stroke="#5E6B7A" stroke-opacity="0.3" stroke-width="0.8"/>
<text x="260.2" y="275.5" font-size="10.5" text-anchor="middle" fill="#5E6B7A">ask</text>
<rect x="802.5" y="350.0" width="35.7" height="14.0" rx="3" fill="#F7F8FA" fill-opacity="0.95" stroke="#5E6B7A" stroke-opacity="0.3" stroke-width="0.8"/>
<text x="820.3" y="359.0" font-size="10.5" text-anchor="middle" fill="#5E6B7A">query</text>
<rect x="757.9" y="276.3" width="50.4" height="14.0" rx="3" fill="#F7F8FA" fill-opacity="0.95" stroke="#5E6B7A" stroke-opacity="0.3" stroke-width="0.8"/>
<text x="783.1" y="285.3" font-size="10.5" text-anchor="middle" fill="#5E6B7A">evidence</text>
<rect x="697.0" y="281.7" width="30.0" height="14.0" rx="3" fill="#F7F8FA" fill-opacity="0.95" stroke="#5E6B7A" stroke-opacity="0.3" stroke-width="0.8"/>
<text x="712.0" y="290.7" font-size="10.5" text-anchor="middle" fill="#5E6B7A">runs</text>
<rect x="846.0" y="165.0" width="36.0" height="14.0" rx="3" fill="#F7F8FA" fill-opacity="0.95" stroke="#5E6B7A" stroke-opacity="0.3" stroke-width="0.8"/>
<text x="864.0" y="174.0" font-size="10.5" text-anchor="middle" fill="#5E6B7A">brand</text>
<rect x="787.7" y="435.7" width="30.6" height="14.0" rx="3" fill="#F7F8FA" fill-opacity="0.95" stroke="#5E6B7A" stroke-opacity="0.3" stroke-width="0.8"/>
<text x="803.0" y="444.7" font-size="10.5" text-anchor="middle" fill="#5E6B7A">LLM</text>
<rect x="896.4" y="348.6" width="35.3" height="14.0" rx="3" fill="#F7F8FA" fill-opacity="0.95" stroke="#5E6B7A" stroke-opacity="0.3" stroke-width="0.8"/>
<text x="914.0" y="357.6" font-size="10.5" text-anchor="middle" fill="#5E6B7A">emits</text>
<rect x="1142.7" y="374.0" width="52.1" height="14.0" rx="3" fill="#F7F8FA" fill-opacity="0.95" stroke="#5E6B7A" stroke-opacity="0.3" stroke-width="0.8"/>
<text x="1168.7" y="383.0" font-size="10.5" text-anchor="middle" fill="#5E6B7A">diagrams</text>
<rect x="1349.9" y="446.0" width="34.1" height="14.0" rx="3" fill="#F7F8FA" fill-opacity="0.95" stroke="#5E6B7A" stroke-opacity="0.3" stroke-width="0.8"/>
<text x="1367.0" y="455.0" font-size="10.5" text-anchor="middle" fill="#5E6B7A">clean</text>
<rect x="1113.2" y="523.0" width="31.2" height="14.0" rx="3" fill="#F7F8FA" fill-opacity="0.95" stroke="#5E6B7A" stroke-opacity="0.3" stroke-width="0.8"/>
<text x="1128.8" y="532.0" font-size="10.5" text-anchor="middle" fill="#5E6B7A">save</text>
<line x1="36" y1="579.0" x2="1767.0" y2="579.0" stroke="#5E6B7A" stroke-opacity="0.3"/>
<rect x="36.0" y="593.0" width="12" height="12" rx="3" fill="#F0EEF9" stroke="#493C9F"/>
<rect x="36.5" y="593.0" width="3" height="12" rx="1.5" fill="#493C9F"/>
<text x="53.0" y="603.0" font-size="10" fill="#5E6B7A">client</text>
<rect x="96.7" y="593.0" width="12" height="12" rx="3" fill="#EBEEF3" stroke="#5E6B7A"/>
<rect x="97.2" y="593.0" width="3" height="12" rx="1.5" fill="#5E6B7A"/>
<text x="113.7" y="603.0" font-size="10" fill="#5E6B7A">external</text>
<rect x="169.3" y="593.0" width="12" height="12" rx="3" fill="#F8EFF1" stroke="#9A425A"/>
<rect x="169.8" y="593.0" width="3" height="12" rx="1.5" fill="#9A425A"/>
<text x="186.3" y="603.0" font-size="10" fill="#5E6B7A">security</text>
<rect x="241.0" y="593.0" width="12" height="12" rx="3" fill="#EBF3FC" stroke="#2F62A0"/>
<rect x="241.5" y="593.0" width="3" height="12" rx="1.5" fill="#2F62A0"/>
<text x="258.0" y="603.0" font-size="10" fill="#5E6B7A">store</text>
<rect x="300.4" y="593.0" width="12" height="12" rx="3" fill="#EBF3FC" stroke="#1F3D63"/>
<rect x="300.9" y="593.0" width="3" height="12" rx="1.5" fill="#1F3D63"/>
<text x="317.4" y="603.0" font-size="10" fill="#5E6B7A">service</text>
<rect x="368.6" y="593.0" width="12" height="12" rx="3" fill="#EEF9F0" stroke="#3C9F4C"/>
<rect x="369.1" y="593.0" width="3" height="12" rx="1.5" fill="#3C9F4C"/>
<text x="385.6" y="603.0" font-size="10" fill="#5E6B7A">queue</text>
<line x1="441.8" y1="599.0" x2="465.8" y2="599.0" stroke="#5E6B7A" stroke-width="1.5"/>
<text x="471.8" y="603.0" font-size="10" fill="#5E6B7A">flow</text>
<line x1="510.1" y1="599.0" x2="534.1" y2="599.0" stroke="#5E6B7A" stroke-width="1.5" stroke-dasharray="6 4"/>
<text x="540.1" y="603.0" font-size="10" fill="#5E6B7A">async / return</text>
<line x1="620.9" y1="599.0" x2="644.9" y2="599.0" stroke="#1F3D63" stroke-width="2.3"/>
<text x="650.9" y="603.0" font-size="10" fill="#5E6B7A">primary path</text>
<line x1="726.3" y1="599.0" x2="750.3" y2="599.0" stroke="#2F62A0" stroke-width="1.9" stroke-dasharray="9 3 2 3"/>
<text x="756.3" y="603.0" font-size="10" fill="#5E6B7A">secure</text>
</svg>